<svg xmlns="http://www.w3.org/2000/svg" viewBox="0 0 256 256" focusable="false" color="var(--token-2930fc96-2a19-4c51-bdb3-fa6e89c47e8a, rgb(245, 110, 15))" style="user-select: none; width: 100%; height: 100%; display: inline-block; fill: var(--token-2930fc96-2a19-4c51-bdb3-fa6e89c47e8a, rgb(245, 110, 15)); color: var(--token-2930fc96-2a19-4c51-bdb3-fa6e89c47e8a, rgb(245, 110, 15)); flex-shrink: 0;"><g color="var(--token-2930fc96-2a19-4c51-bdb3-fa6e89c47e8a, rgb(245, 110, 15))" weight="regular"><path d="M230.76,51.73A8,8,0,0,0,224,48H32a8,8,0,0,0-5.41,13.9l42.09,38.57-42.56,46.1A8,8,0,0,0,32,160H165.62l-28.84,60.56a8,8,0,1,0,14.44,6.88l80-168A8,8,0,0,0,230.76,51.73ZM173.23,144h-123l35.61-38.57a8,8,0,0,0-.47-11.33L52.57,64H211.33Z"></path></g></svg>