<svg xmlns="http://www.w3.org/2000/svg" viewBox="0 0 256 256" focusable="false" color="var(--token-2930fc96-2a19-4c51-bdb3-fa6e89c47e8a, rgb(245, 110, 15))" style="user-select: none; width: 100%; height: 100%; display: inline-block; fill: var(--token-2930fc96-2a19-4c51-bdb3-fa6e89c47e8a, rgb(245, 110, 15)); color: var(--token-2930fc96-2a19-4c51-bdb3-fa6e89c47e8a, rgb(245, 110, 15)); flex-shrink: 0;"><g color="var(--token-2930fc96-2a19-4c51-bdb3-fa6e89c47e8a, rgb(245, 110, 15))" weight="regular"><path d="M168,112h48a16,16,0,0,0,16-16V48a16,16,0,0,0-16-16H168a16,16,0,0,0-16,16V64h-8a32,32,0,0,0-32,32v24H80v-8A16,16,0,0,0,64,96H32a16,16,0,0,0-16,16v32a16,16,0,0,0,16,16H64a16,16,0,0,0,16-16v-8h32v24a32,32,0,0,0,32,32h8v16a16,16,0,0,0,16,16h48a16,16,0,0,0,16-16V160a16,16,0,0,0-16-16H168a16,16,0,0,0-16,16v16h-8a16,16,0,0,1-16-16V96a16,16,0,0,1,16-16h8V96A16,16,0,0,0,168,112ZM64,144H32V112H64v32Zm104,16h48v48H168Zm0-112h48V96H168Z"></path></g></svg>