<svg xmlns="http://www.w3.org/2000/svg" id="Layer_1" viewBox="0 0 30 30"><defs><style>.cls-1{fill:#fd7219;fill-rule:evenodd}</style></defs><path d="M3.34 5.55c.07.5.13.83.24 1.1.13.31.35.6.76 1.04.32.34.59.67.8 1.05.23.41.37.85.41 1.39v.31c0 .19 0 .39.08.51.07.12.22.25.4.39.21.16.46.32.7.47.12.07.23.14.33.19-.13-.22-.37-.54-.48-.88-.12-.38-.23-.71-.26-.95-.06-.45.06-.75.34-.97.22-.17.45-.22.73-.25.37-.03.82-.03 1.25.07.46.11.89.33 1.19.74.05-.09.09-.2.14-.31.13-.31.27-.64.54-.95.38-.44.9-.72 1.36-.96.04-.02-.09.05.15-.08.15-.08.19-.1.23-.12.01 0 .03-.01.04-.02.36-.2.67-.37 1.05-.46.2-.05.39-.07.58-.1.15-.02.29-.04.31-.05.03-.01 0-.01.02-.04.16-.19.31-.38.68-.46.28-.06.54-.01.82.04.13.02.27.05.36.06-.02-.27-.17-.69-.29-1.03l-.03-.08c-.1-.28-.2-.56-.31-.8-.09-.2-.19-.37-.29-.47a.472.472 0 0 0-.18-.12.408.408 0 0 0-.19-.01c-.08.02-.23.11-.39.22-.46.31-.98.65-1.83.59-.33-.02-.77-.14-1.17-.34-.28-.14-.55-.33-.75-.56-.25-.29-.4-.64-.37-1.06.01-.18.07-.38.16-.57.12-.25.31-.48.55-.67.21-.17.47-.32.76-.41.28-.09.57-.13.86-.17.2-.03.4-.06.53-.1.11-.03.2-.08.28-.15.11-.08.21-.2.33-.35.05-.06.1-.12.14-.19a14.917 14.917 0 0 0-10.6 5.53zM15.2 18.21c-.14-.1-.32-.2-.51-.3-.33-.17-.67-.34-.99-.64-.3-.27-.52-.59-.74-.9-.15-.21-.29-.42-.43-.56-.18-.18-.42-.29-.62-.39-.13-.06-.26-.12-.39-.21a2.09 2.09 0 0 1-.55-.48c-.04-.04-.06-.07-.19-.04-.13.03-.27.08-.4.15-.09.05-.18.1-.25.17-.11.1-.2.25-.29.4-.05.09-.11.18-.19.29-.16.23-.3.38-.43.51-.16.18-.3.32-.29.56a3 3 0 0 0 .07.52c.05.23.11.46.17.64.06.19.15.4.24.6.24.57.47 1.1.46 1.96-.01.7-.28 1.54-.52 2.33-.1.32-.2.64-.27.92-.02.06-.05.18-.08.29-.1.34-.19.67-.04.83.15.17.21.22.22.22.05-.01.14-.12.21-.22.49-.68 1.04-.88 1.52-1.06.18-.07.35-.13.4-.19.05-.05.11-.19.17-.35.09-.21.18-.43.32-.67.17-.28.41-.55.68-.77.26-.22.56-.4.87-.52.23-.09.43-.13.62-.16.18-.04.35-.07.41-.13.11-.11.24-.4.36-.69.1-.23.2-.47.32-.67.12-.22.26-.39.38-.55.11-.15.21-.27.21-.3 0-.04-.03-.11-.08-.2-.08-.14-.21-.27-.36-.39z" class="cls-1"/><path d="M23.77 8.85s.04-.03.06-.05c.31-.27.7-.43 1.1-.6.11-.05.23-.1.29-.12.11-.05.18-.08.25-.11.43-.2.81-.38 1.26-.38.35 0 .62.11.91.23.13.05.26.11.39.14.07.02.16.04.24.05-.71-1.34-1.61-2.56-2.67-3.62C23.04 1.83 19.56.19 15.7 0c-.27.4-.53.79-.78 1.1-.18.23-.35.42-.56.58-.22.18-.47.31-.76.4-.25.08-.5.11-.76.15-.22.03-.44.06-.61.12-.12.04-.23.1-.31.17-.08.06-.14.13-.17.19 0 .02-.01.03-.01.04 0 0 .01 0 .03.02.07.08.18.15.3.21.22.11.46.17.63.19.36.03.67-.18.94-.36.29-.19.55-.36.9-.43.27-.05.6-.05.92.06.27.09.54.25.77.49.22.23.4.53.55.86.14.29.25.61.36.93l.03.08c.17.48.38 1.07.37 1.61-.02.79-.38 1.35-1.45 1.33-.23 0-.42-.04-.61-.08-.06-.01-.12-.03-.16-.04-.1.12-.22.25-.44.36-.25.13-.51.16-.79.2-.13.02-.28.03-.39.06-.22.06-.44.18-.71.32-.01 0-.02.01-.04.02l-.25.14c-.15.08 0 0-.16.08-.35.19-.75.4-.95.63-.13.15-.22.37-.31.58-.08.19-.16.37-.27.56-.15.25-.35.46-.54.61-.28.22-.6.33-.88.3-.54-.05-.67-.35-.84-.71-.02-.04-.04-.09-.07-.14-.07-.11-.21-.18-.38-.22-.15-.03-.31-.05-.47-.05.03.09.06.2.1.31.32.98.73 2.23.02 2.75-.33.24-.72.22-1.16.04-.25-.1-.53-.26-.82-.44-.28-.17-.57-.36-.83-.57-.29-.23-.55-.48-.72-.75-.3-.47-.3-.87-.31-1.27v-.23c-.02-.31-.1-.56-.23-.79-.15-.26-.35-.51-.6-.78-.53-.58-.83-.97-1.03-1.46l-.03-.09C.82 9.41 0 12.1 0 14.99a14.99 14.99 0 0 0 15 15c3.49 0 6.69-1.19 9.24-3.18-.31-.64-.59-1.28-.76-1.9-.11-.39-.16-.77-.18-1.1-.01-.39.03-.74.13-1.02.18-.53.48-.77.74-.97.03-.02.05-.04.08-.06.03-.02.05-.04.05-.06.04-.08.06-.23.08-.5.03-.37.03-.9-.03-1.37-.04-.31-.1-.59-.18-.73-.05-.09-.29-.1-.58-.1a4.955 4.955 0 0 1-1.76-.33c-.39-.16-.76-.37-1.05-.62a2.64 2.64 0 0 1-.66-.91c-.13-.3-.2-.59-.26-.86-.13-.58-.2-1.05-.09-1.5.13-.54.46-.94 1.15-1.23.15-.07.25-.1.35-.14.18-.06.35-.13.42-.18.04-.03.09-.1.14-.18.31-.43.66-.92 2.07-1.12.79-.11 1.37-.05 1.87.23s.84.73 1.15 1.42c.08.18.09.2.11.23.03.07.05.14.06.21.1-.05.21-.09.3-.13.12-.04.24-.07.36-.1.11-.02.21-.04.21-.05l.02-.08c0-.08 0-.16-.03-.25-.12-.32-.5-.63-.95-.92-.53-.34-1.13-.61-1.59-.81-.25-.11.01 0-.22-.09-.61-.26-1.15-.5-1.49-.85l-.02-.02s-.03-.04-.05-.06c-.24-.28-.34-.59-.32-.91.02-.33.17-.64.43-.89l.02-.02zm-7.19 11.1c-.09.12-.19.25-.28.4-.09.16-.17.35-.25.53-.18.42-.37.84-.68 1.14-.37.36-.74.43-1.13.51-.14.03-.28.06-.39.1-.15.06-.3.15-.45.27-.16.13-.29.28-.39.44-.09.14-.16.3-.22.45-.12.29-.22.54-.45.78-.29.31-.6.42-.95.55-.29.11-.62.23-.86.56-.22.3-.53.64-1 .76-.5.14-1.07.02-1.66-.64-.68-.75-.48-1.44-.27-2.17.02-.07.04-.13.07-.25.07-.29.18-.64.29-.99.22-.7.45-1.45.46-1.93.01-.55-.16-.95-.34-1.37-.09-.21-.18-.43-.28-.71-.09-.26-.16-.55-.22-.82-.05-.26-.09-.53-.09-.76-.02-.81.29-1.14.67-1.55.1-.11.22-.24.31-.36.03-.05.09-.13.14-.22.15-.24.3-.49.56-.72.17-.15.37-.28.57-.38.23-.12.47-.2.67-.25.96-.25 1.23.04 1.61.46.07.08.15.16.25.23.05.03.15.08.25.13.31.15.67.32 1.02.67.22.22.4.48.59.75.17.25.35.51.53.67.18.17.43.3.67.42.24.12.47.24.71.42.3.22.55.5.73.8.2.33.31.69.29 1.03-.03.46-.24.74-.49 1.07z" class="cls-1"/><path fill-rule="evenodd" d="M25.77 10.26zm1.35 3.84v.02-.02zm0-.02c.05.05.12.09.03.05 0 0-.01 0-.02-.01v-.04z"/><path d="M28.95 9.48c.67 1.71 1.05 3.57 1.05 5.51 0 4.14-1.68 7.89-4.39 10.61-.08.08-.16.16-.24.23-.21-.46-.4-.91-.51-1.3-.08-.28-.12-.55-.13-.78 0-.21.01-.39.05-.51.04-.13.16-.22.27-.31.04-.03.07-.06.11-.09.18-.14.33-.3.45-.59.1-.23.17-.52.2-.97.03-.44.03-1.08-.04-1.65-.06-.48-.17-.94-.37-1.28-.45-.77-1.06-.79-1.76-.81-.13 0-.27 0-.41-.02-.28-.03-.58-.1-.86-.21-.25-.1-.47-.22-.63-.36-.13-.12-.23-.26-.29-.42-.08-.18-.13-.39-.17-.59-.09-.39-.14-.69-.1-.86.02-.09.11-.17.32-.26.05-.02.16-.06.27-.1.29-.11.57-.21.83-.42.19-.16.3-.3.41-.46.14-.2.3-.42 1.1-.53.47-.07.78-.05.98.06.2.11.36.36.55.76.01.03.04.1.09.22 0 .01.01.02.02.04.2.45.38.84.79 1.02.44.2.77.06 1.13-.11.06-.03.12-.06.2-.08.07-.02.14-.04.22-.06.32-.07.63-.14.92-.45.21-.22.36-.54.41-.89.04-.29 0-.62-.11-.94-.25-.66-.85-1.2-1.52-1.63-.6-.38-1.28-.69-1.79-.91l-.22-.1s.03.01 0 0c-.38-.17-.73-.32-.93-.45.15-.09.39-.19.64-.3.09-.04.17-.07.31-.13.07-.03.17-.08.27-.13.28-.13.52-.24.66-.24.08 0 .22.06.37.12.17.07.35.14.58.2.27.07.57.11.88.13.13 0 .26.01.4.01z" class="cls-1"/></svg>