<svg xmlns="http://www.w3.org/2000/svg" viewBox="0 0 256 256" focusable="false" color="var(--token-2930fc96-2a19-4c51-bdb3-fa6e89c47e8a, #F56E0F)" style="user-select: none; width: 100%; height: 100%; display: inline-block; fill: var(--token-2930fc96-2a19-4c51-bdb3-fa6e89c47e8a, #F56E0F); color: var(--token-2930fc96-2a19-4c51-bdb3-fa6e89c47e8a, #F56E0F); flex-shrink: 0;"><g color="var(--token-2930fc96-2a19-4c51-bdb3-fa6e89c47e8a, #F56E0F)" weight="regular"><path d="M232,208a8,8,0,0,1-8,8H32a8,8,0,0,1-8-8V48a8,8,0,0,1,16,0v94.37L90.73,98a8,8,0,0,1,10.07-.38l58.81,44.11L218.73,90a8,8,0,1,1,10.54,12l-64,56a8,8,0,0,1-10.07.38L96.39,114.29,40,163.63V200H224A8,8,0,0,1,232,208Z"></path></g></svg>