<svg height="200px" width="200px" version="1.1" id="Capa_1" xmlns="http://www.w3.org/2000/svg" xmlns:xlink="http://www.w3.org/1999/xlink" viewBox="0 0 306.399 306.399" xml:space="preserve" fill="#F56E0F"><g id="SVGRepo_bgCarrier" stroke-width="0"></g><g id="SVGRepo_tracerCarrier" stroke-linecap="round" stroke-linejoin="round"></g><g id="SVGRepo_iconCarrier"> <g> <g> <path style="fill:#F56E0F;" d="M297.212,27.334H9.192C4.112,27.334,0,31.446,0,36.526s4.112,9.192,9.192,9.192h288.015 c5.08,0,9.192-4.112,9.192-9.192C306.399,31.446,302.287,27.334,297.212,27.334z"></path> <path style="fill:#F56E0F;" d="M30.491,207.862c0,5.08,4.112,9.192,9.192,9.192h76.321l-38.253,47.015 c-3.204,3.938-2.605,9.73,1.327,12.934c1.708,1.387,3.758,2.061,5.798,2.061c2.671,0,5.319-1.159,7.136-3.389l47.695-58.617 h29.094l47.695,58.617c1.817,2.235,4.465,3.389,7.136,3.389c2.04,0,4.09-0.674,5.798-2.061c3.938-3.204,4.531-8.996,1.327-12.934 l-38.253-47.015h74.216c5.08,0,9.192-4.112,9.192-9.192c0-5.08-4.112-9.192-9.192-9.192H39.683 C34.603,198.67,30.491,202.782,30.491,207.862z"></path> <path style="fill:#F56E0F;" d="M133.447,189.402c4.498,0,8.159-3.66,8.159-8.159V66.24c0-4.498-3.66-8.159-8.159-8.159h-24.269 c-4.498,0-8.159,3.66-8.159,8.159v115.009c0,4.498,3.66,8.159,8.159,8.159h24.269V189.402z M106.459,181.243V66.24 c0-1.501,1.218-2.72,2.72-2.72h24.269c1.501,0,2.72,1.218,2.72,2.72v115.009c0,1.501-1.218,2.72-2.72,2.72h-24.269 C107.677,183.963,106.459,182.744,106.459,181.243z"></path> <path style="fill:#F56E0F;" d="M182.769,189.402c4.498,0,8.159-3.66,8.159-8.159v-30.399c0-4.498-3.66-8.159-8.159-8.159h-17.731 c-4.498,0-8.159,3.66-8.159,8.159v30.399c0,4.498,3.66,8.159,8.159,8.159H182.769z M162.318,181.243v-30.399 c0-1.501,1.218-2.72,2.72-2.72h17.731c1.501,0,2.72,1.218,2.72,2.72v30.399c0,1.501-1.218,2.72-2.72,2.72h-17.731 C163.536,183.963,162.318,182.744,162.318,181.243z"></path> </g> </g> </g></svg>