<svg xmlns="http://www.w3.org/2000/svg" viewBox="0 0 256 256" focusable="false" color="var(--token-2930fc96-2a19-4c51-bdb3-fa6e89c47e8a, #F56E0F)" style="user-select: none; width: 100%; height: 100%; display: inline-block; fill: var(--token-2930fc96-2a19-4c51-bdb3-fa6e89c47e8a, #F56E0F); color: var(--token-2930fc96-2a19-4c51-bdb3-fa6e89c47e8a, #F56E0F); flex-shrink: 0;"><g color="var(--token-2930fc96-2a19-4c51-bdb3-fa6e89c47e8a, #F56E0F)" weight="regular"><path d="M229.66,58.34l-32-32a8,8,0,0,0-11.32,0l-96,96A8,8,0,0,0,88,128v32a8,8,0,0,0,8,8h32a8,8,0,0,0,5.66-2.34l96-96A8,8,0,0,0,229.66,58.34ZM124.69,152H104V131.31l64-64L188.69,88ZM200,76.69,179.31,56,192,43.31,212.69,64ZM224,120v88a16,16,0,0,1-16,16H48a16,16,0,0,1-16-16V48A16,16,0,0,1,48,32h88a8,8,0,0,1,0,16H48V208H208V120a8,8,0,0,1,16,0Z"></path></g></svg>