<svg fill="#F56E0F" height="200px" width="200px" version="1.1" id="Layer_1" xmlns="http://www.w3.org/2000/svg" xmlns:xlink="http://www.w3.org/1999/xlink" viewBox="0 0 315.577 315.577" xml:space="preserve"><g id="SVGRepo_bgCarrier" stroke-width="0"></g><g id="SVGRepo_tracerCarrier" stroke-linecap="round" stroke-linejoin="round"></g><g id="SVGRepo_iconCarrier"> <g> <g> <g> <path d="M169.756,27.753h-65.228c-1.904,0-3.444,1.544-3.444,3.448v17.764C45.084,51.009,0,97.285,0,153.677 c0,56.388,45.084,102.668,101.084,104.708v17.768c0,1.9,1.54,3.444,3.444,3.444h65.228c1.9,0,3.44-1.544,3.44-3.444V31.201 C173.2,29.297,171.66,27.753,169.756,27.753z M100.728,158.057c-2.14-0.36-3.804-2.136-3.804-4.376 c0-2.24,1.664-4.024,3.804-4.38V158.057z M100.728,142.333c-5.952,0.384-10.692,5.3-10.692,11.348 c0,6.044,4.74,10.96,10.692,11.34v32.564c-22.332-2.132-39.956-21.132-39.956-43.904c0-22.772,17.624-41.78,39.956-43.908 V142.333z M100.728,102.913c-26.12,2.16-46.844,24.224-46.844,50.768s20.724,48.6,46.844,50.76v47.148 c-52.056-2.208-93.84-45.42-93.84-97.908c0-52.488,41.784-95.704,93.84-97.916V102.913z M166.312,45.245 c-0.02,0-0.036-0.012-0.06-0.012h-11.32c-1.332,0-2.412,1.08-2.412,2.412c0,1.336,1.08,2.412,2.412,2.412h11.32 c0.02,0,0.036-0.008,0.06-0.012v11.532c-0.02,0-0.036-0.008-0.06-0.008h-11.32c-1.332,0-2.412,1.076-2.412,2.412 c0,1.332,1.08,2.408,2.412,2.408h11.32c0.02,0,0.036-0.008,0.06-0.008v11.536c-0.02-0.004-0.036-0.012-0.06-0.012h-11.32 c-1.332,0-2.412,1.076-2.412,2.412c0,1.332,1.08,2.412,2.412,2.412h11.32c0.02,0,0.036-0.012,0.06-0.012v11.536 c-0.02,0-0.036-0.012-0.06-0.012h-11.32c-1.332,0-2.412,1.08-2.412,2.412c0,1.332,1.08,2.412,2.412,2.412h11.32 c0.02,0,0.036-0.012,0.06-0.012v11.536c-0.02,0-0.036-0.012-0.06-0.012h-11.32c-1.332,0-2.412,1.08-2.412,2.412 c0,1.336,1.08,2.412,2.412,2.412h11.32c0.02,0,0.036-0.008,0.06-0.012v11.536c-0.02,0-0.036-0.008-0.06-0.008h-11.32 c-1.332,0-2.412,1.076-2.412,2.408c0,1.336,1.08,2.412,2.412,2.412h11.32c0.02,0,0.036-0.008,0.06-0.008v11.532 c-0.02-0.004-0.036-0.012-0.06-0.012h-11.32c-1.332,0-2.412,1.076-2.412,2.412c0,1.332,1.08,2.412,2.412,2.412h11.32 c0.02,0,0.036-0.012,0.06-0.012v11.536c-0.02,0-0.036-0.012-0.06-0.012h-11.32c-1.332,0-2.412,1.08-2.412,2.412 c0,1.332,1.08,2.412,2.412,2.412h11.32c0.02,0,0.036-0.012,0.06-0.012v11.536c-0.02,0-0.036-0.012-0.06-0.012h-11.32 c-1.332,0-2.412,1.08-2.412,2.412c0,1.336,1.08,2.412,2.412,2.412h11.32c0.02,0,0.036-0.008,0.06-0.012v11.536 c-0.02,0-0.036-0.008-0.06-0.008h-11.32c-1.332,0-2.412,1.076-2.412,2.408c0,1.336,1.08,2.412,2.412,2.412h11.32 c0.02,0,0.036-0.008,0.06-0.008v11.536c-0.02-0.004-0.036-0.012-0.06-0.012h-11.32c-1.332,0-2.412,1.076-2.412,2.412 c0,1.332,1.08,2.412,2.412,2.412h11.32c0.02,0,0.036-0.012,0.06-0.012v11.532c-0.02,0-0.036-0.012-0.06-0.012h-11.32 c-1.332,0-2.412,1.08-2.412,2.412c0,1.332,1.08,2.412,2.412,2.412h11.32c0.02,0,0.036-0.012,0.06-0.012v11.536 c-0.02,0-0.036-0.012-0.06-0.012h-11.32c-1.332,0-2.412,1.08-2.412,2.412c0,1.336,1.08,2.412,2.412,2.412h11.32 c0.02,0,0.036-0.008,0.06-0.012v11.536c-0.02,0-0.036-0.008-0.06-0.008h-11.32c-1.332,0-2.412,1.076-2.412,2.408 c0,1.336,1.08,2.412,2.412,2.412h11.32c0.02,0,0.036-0.008,0.06-0.008v10.32h-58.34V34.645h58.34V45.245z"></path> <path d="M251.756,66.765c-6.216,0-11.276,4.9-11.276,10.916c0,6.02,5.06,10.916,11.276,10.916s11.272-4.896,11.272-10.916 C263.028,71.661,257.972,66.765,251.756,66.765z M251.756,83.781c-3.56,0-6.456-2.732-6.456-6.096s2.896-6.096,6.456-6.096 c3.556,0,6.452,2.732,6.452,6.096S255.312,83.781,251.756,83.781z"></path> <path d="M315.492,275.444l-19.304-84.384h12.452c1.332,0,2.412-1.08,2.412-2.412c0-1.336-1.08-2.412-2.412-2.412h-13.556 l-20.608-90.088c-0.052-0.236-0.192-0.424-0.288-0.636c4.212-4.828,6.756-11.044,6.756-17.832V36.373 c0-0.716-0.084-1.412-0.184-2.108l-0.092-0.684c-0.18-1.748-1.66-3.084-3.424-3.084h-14.872V16.121 c0-5.92-4.952-10.732-11.04-10.732s-11.04,4.816-11.04,10.732v14.376H225.42c-1.76,0-3.232,1.328-3.424,3.076l-0.092,0.672 c-0.1,0.704-0.188,1.4-0.188,2.124v41.308c0,6.716,2.488,12.876,6.616,17.68c-0.132,0.256-0.288,0.496-0.352,0.788 l-20.604,90.088h-9.908c-1.332,0-2.412,1.076-2.412,2.412c0,1.332,1.08,2.412,2.412,2.412h8.8l-19.304,84.388 c-0.08,0.348-0.104,0.708-0.072,1.064l2.6,30.528c0.128,1.488,1.2,2.724,2.656,3.06c0.26,0.064,0.52,0.092,0.776,0.092 c1.192,0,2.324-0.62,2.956-1.676l15.748-26.284c0.188-0.316,0.324-0.656,0.404-1.016l39.196-174.132l17.896,79.508l-13.66-0.152 v-17.84c0-1.336-1.08-2.412-2.412-2.412c-1.332,0-2.412,1.076-2.412,2.412v17.788l-13.508-0.152h-0.024 c-1.316,0-2.396,1.06-2.412,2.384c-0.012,1.332,1.056,2.424,2.388,2.44l13.56,0.152v14.444c0,1.332,1.08,2.412,2.412,2.412 c1.332,0,2.412-1.08,2.412-2.412V191.26l14.748,0.164l20.212,89.788c0.08,0.36,0.216,0.7,0.404,1.016l15.748,26.284 c0.632,1.056,1.764,1.676,2.952,1.676c0.256,0,0.516-0.028,0.776-0.092c1.456-0.336,2.532-1.576,2.656-3.06l2.6-30.528 C315.596,276.152,315.568,275.792,315.492,275.444z M247.176,16.121h0.004c0-2.12,1.864-3.844,4.152-3.844 c2.288,0,4.156,1.724,4.156,3.844v14.376h-8.312V16.121z M205.432,279.169l-9.98,16.66l-1.652-19.372l40.268-176.024 c3.14,2.112,6.728,3.652,10.604,4.424L205.432,279.169z M250.488,98.537c-12.068,0-21.884-9.356-21.884-20.856V37.389h45.46 v40.292c0,11.5-9.82,20.856-21.888,20.856H250.488z M307.004,295.829l-9.98-16.66l-39.232-174.276 c3.88-0.744,7.476-2.244,10.628-4.328l40.236,175.892L307.004,295.829z"></path> <path d="M70.74,231.884c6.636,2.604,13.544,3.992,20.524,4.124h0.048c1.308,0,2.384-1.048,2.408-2.364 c0.028-1.328-1.032-2.432-2.364-2.456c-6.408-0.124-12.752-1.396-18.856-3.792c-1.232-0.48-2.64,0.124-3.124,1.36 C68.888,230.001,69.5,231.397,70.74,231.884z"></path> <path d="M49.076,214.109c-0.924,0.956-0.896,2.488,0.06,3.412c1.232,1.188,2.12,2.068,2.82,2.772 c2.696,2.692,3.028,2.972,8.34,6.336c0.396,0.256,0.844,0.376,1.288,0.376c0.8,0,1.58-0.396,2.036-1.12 c0.72-1.132,0.384-2.62-0.744-3.332c-4.988-3.16-5.084-3.256-7.508-5.676c-0.72-0.716-1.624-1.62-2.884-2.832 C51.528,213.125,50,213.153,49.076,214.109z"></path> <path d="M34.824,102.349c-4.668,7.704-8.116,16.212-10.24,25.288c-0.304,1.296,0.5,2.596,1.796,2.9 c0.184,0.044,0.372,0.064,0.556,0.064c1.092,0,2.084-0.752,2.344-1.864c2.012-8.584,5.268-16.624,9.672-23.896 c0.684-1.136,0.32-2.616-0.816-3.304C36.996,100.845,35.516,101.209,34.824,102.349z"></path> <path d="M47.352,92.449c0.628,0,1.256-0.248,1.732-0.728c11.7-12.056,26.716-18.844,42.272-19.12 c1.332-0.024,2.392-1.12,2.368-2.452c-0.024-1.332-1.244-2.3-2.452-2.368c-16.836,0.3-33.052,7.604-45.652,20.576 c-0.928,0.956-0.904,2.484,0.052,3.408C46.14,92.221,46.744,92.449,47.352,92.449z"></path> <path d="M259.584,46.193h4.556v10.256c0,3.128,4.86,3.132,4.86,0V43.761c0-1.932-1.848-2.664-3.268-2.208 c-0.296-0.14-0.644-0.22-1.044-0.22h-5.104C256.456,41.337,256.452,46.193,259.584,46.193z"></path> <path d="M269,63.725c0-3.124-4.86-3.128-4.86,0v3.932c0,3.128,4.86,3.132,4.86,0V63.725z"></path> </g> </g> </g> </g></svg>