<svg xmlns="http://www.w3.org/2000/svg" viewBox="0 0 30 30"><path fill="#fd7219" d="M15 .03C6.73.03.03 6.73.03 15S6.73 29.97 15 29.97 29.97 23.27 29.97 15 23.27.03 15 .03zm9.14 20.33c-.03.05-.07.08-.11.08-.05 0-.09-.04-.12-.09-.08.39-.46 2.06-1.16 2.8-.1.1-.19.15-.28.15-.07 0-.11-.03-.13-.06-.2.04-.34 0-.41-.13-.1-.18-.03-.48.03-.58-.14-.26-.19-.46-.13-.58.06-.13.21-.18.33-.2.03 0 .05-.02.07-.06.13-.21.06-.93 0-1.12 0-.03-.02-.06 0-.08.02-.03.07-.01.11 0 .01 0 .02.01.03.02 0-.02-.01-.06-.06-.16-.02-.1-.02-.13 0-.15h.01l.02-.01c.02 0 .04.02.07.04.04.04.11.1.18.08 0 0 .02 0 .03-.02 0-.02-.03-.08-.05-.11-.03-.04-.04-.07-.03-.09 0-.01.02-.03.11 0 .03.01.05.02.08.02.04 0 .07-.02.09-.04.03-.02.06-.04.09-.04s.07.02.11.06c.03 0 .04 0 .04-.01s0-.05-.01-.08c-.02-.04-.03-.07-.01-.1.01-.02.04-.03.08-.02s.07.01.08.02h.01s.02 0 .05-.02c.03-.01.03-.02 0-.09-.02-.05-.04-.13-.02-.24.02-.1.08-.12.12-.12a.4.4 0 0 1 .18.07c0-.12.06-.37.19-.41.13-.04.22.07.3.21.18.33.18.94.1 1.07zm-.03-7.24c-.08.13-.13.14-.14.13l-.18-.13.09.2c.31.7-1.43 2.17-2.08 2.5l-.04.02v.04c0 .08-.01.14-.05.18-.03.03-.08.05-.15.05-.06 0-.1-.01-.1-.01l-.09-.03v.09c.03.12.05.46-.06.58-.03.03-.07.04-.12.03l-.14-.02.08.12s.03.07.02.11c-.03.1-.18.18-.23.21l-.23.1h.25s.21.02.2.19v.02l.01.02c.05.05.07.1.06.15-.02.09-.12.16-.12.16l-.15.09.17.02c.09.01.2.05.21.07 0 0 0 .02-.07.06-.18.11-.17.23-.16.28.03.13.21.21.33.17.09.03.1.05.1.05 0 .02-.05.09-.08.13-.13.16-.31.41-.14.78.12.26.15.45.08.61-.09.19-.33.34-.8.48-.44.13-.5.26-.55.43-.03.11-.05.2-.35.31-.14.05-.21.11-.23.19-.02.1.06.19.15.29.18.19.41.44.05.89 0 0-.19.4-.65.43-.08 0-.14.03-.17.08-.06.09-.01.21.04.36.06.15.12.31.05.41-.05.08-.2.13-.42.13h-.06v.06s.03 1.06-1.2 1.19h-.02l-.01.01c-.15.12-.28.18-.39.18s-.19-.05-.25-.1a.26.26 0 0 0-.17-.07c-.06 0-.11.05-.16.11-.11.11-.25.25-.59.25h-.1c-.23-.05-.38-.16-.44-.3-.1-.25.07-.55.07-.55l.03-.05-.05-.03s-.44-.29-.36-.93l.02-.13-.11.07s-.03.02-.05.02c-.11 0-.29-.27-.41-.79-.14-.56-.12-.96-.05-1 .05-.01.06-.05.06-.06.02-.07-.05-.14-.17-.26-.11-.11-.26-.26-.25-.36 0-.02 0-.04.04-.07l.02-.02v-.03c0-.24-.07-.29-.18-.33-.07-.03-.16-.06-.24-.21-.11-.19-.15-.36-.1-.47.06-.14.21-.18.21-.18l.06-.02-.02-.06s-.18-.51 0-.79c.07-.11.18-.16.34-.18.07 0 .15-.03.17-.1.03-.08-.05-.15-.16-.25-.13-.12-.31-.29-.31-.47 0-.11.06-.21.19-.32.06-.06.09-.1.09-.16s-.06-.08-.12-.11c-.13-.06-.34-.16-.34-.67-.01-.31-.29-.52-.56-.73-.23-.18-.45-.34-.45-.53 0-.13.1-.26.3-.42.13-.13.28-.75.14-1.08a.342.342 0 0 0-.33-.23c-.04 0-.09 0-.14.02-.06.03-.13.07-.19.11-.14.09-.27.17-.39.17-.06 0-.24 0-.38-.56 0-.25-.15-.39-.42-.39-.43 0-1.12.34-1.6.65-.16-.11-.36-.17-.59-.17-.34 0-.71.13-1 .35-.03.02-.06.03-.09.03-.21 0-.5-.42-.75-.78-.24-.35-.47-.68-.68-.78-.34-.13-.42-.39-.49-.61-.06-.18-.11-.36-.3-.37-.03 0-.09-.01-.1-.04-.02-.06.07-.2.14-.27l.04-.04-.04-.04s-.13-.13-.13-.33c0-.17.09-.36.28-.53.33-.31.16-.57.04-.74-.04-.06-.09-.13-.07-.16 0-.01.04-.06.24-.1l.11-.02L6 9.24c-.33-.33-.38-.6-.33-.73.04-.1.14-.13.25-.07.1.05.16.03.18 0 .04-.04.04-.12.03-.22-.02-.22-.01-.4.22-.46h.03v-.04c.1-.35.25-.54.41-.54.1 0 .18.06.18.07l.13.11-.03-.16c-.01-.07-.02-.27.05-.36.06-.07.16-.05.31.03l.06.03.03-.06c.11-.28.22-.28.26-.28.05 0 .1.02.15.04.07.03.14.04.18 0 .03-.03.04-.1.02-.2 0-.44.08-1.18.61-1.18.07 0 .15.01.24.04H9c.1 0 .11-.13.12-.3.01-.17.03-.41.14-.41h.02c-.04.18-.02.32.04.41.08.11.24.1.34-.02a.34.34 0 0 1 .25-.11c.05 0 .18.02.21.15 0 .02.02.09.08.09s.08-.05.12-.14c.04-.09.12-.24.2-.24.04 0 .09.03.14.1.08.1.14.14.19.14.1 0 .13-.1.16-.2.04-.13.07-.21.15-.21.04 0 .08.01.14.04.11.06.21.09.29.09.13 0 .2-.06.25-.11.02-.02.05-.04.06-.04 0 0 .02 0 .07.05.05.06.11.09.17.09.08 0 .16-.05.22-.09.06-.04.12-.08.17-.08.02 0 .07 0 .12.08.05.07.11.11.18.11.1 0 .2-.08.29-.16.07-.07.15-.14.21-.14.01 0 .04 0 .07.04v.02h.04c.04 0 .06 0 .08.01-.05.03-.13.06-.19.08-.23.09-.36.15-.36.24 0 .08.11.11.22.14.29.05.31.11.31.12.01.05-.12.15-.19.2-.1.08-.18.14-.19.21 0 .03 0 .05.03.07.06.06.17.09.27.12.04 0 .09.02.11.03-.01 0-.03.02-.05.03-.04.02-.09.05-.07.1 0 .01.02.05.07.05.02 0 .07 0 .13-.01.1-.01.26-.04.41-.04.21 0 .35.04.42.13.05.06.07.16.04.27l-.02.1.1-.03c.11-.04.22-.06.3-.06.21 0 .27.13.33.25.05.1.1.22.24.19.22-.05.34-.11.35-.2 0-.07-.04-.12-.13-.16-.14-.09-.16-.28-.12-.41a.29.29 0 0 1 .29-.22c.12 0 .32.06.61.32l.02.02h.03c.16-.03.31-.04.45-.04.75 0 .95.36.96.36l.06.1.05-.11c.04-.09.19-.32.34-.32.08 0 .17.07.25.2l.04.06.05-.04c.08-.07.25-.18.34-.18.02 0 .03 0 .04.01 0 0 .02.04.02.1v.07h.23c0 .01-.02.04-.02.05-.05.1-.14.26-.04.47.1.21.08.33.05.39-.16-.2-.39-.46-.5-.46-.02 0-.05 0-.07.03-.02.02-.03.05-.03.1.01.3.21.51.47.76l.02.02h.04c.13 0 .25.09.35.23.11.17.15.37.09.5-.08.19.09.26.22.32.2.08.31.16.24.38-.17.54 0 .88.56 1.07-.08.45.42.77.84 1.04.26.17.5.32.53.46 0 .03 0 .06-.03.11-.09.17-.06.29-.02.36.08.15.28.26.55.3h.03l.02-.02c.11-.15.25-.33.29-.33 0 0 .04.02.08.22l.04.2.08-.19c.11-.28.17-.33.17-.33.01.01.03.06.03.1l.02.18.09-.15c.04-.06.09-.12.12-.14 0 .01.01.04.01.11v.23l.11-.2c.11-.2.16-.2.16-.2s.02.02.02.05l.02.08.07-.04s.31-.16.49-.16h.06c.05.1-.15 1.04-.4 1.46z"/></svg>