<svg xmlns="http://www.w3.org/2000/svg" viewBox="0 0 83.24 40.91"><defs><style>.cls-1{fill:#0556a7;}.cls-2{fill:#f39123;}.cls-3{fill:#0857a8;}</style></defs><g id="Layer_2" data-name="Layer 2"><g id="Layer_1-2" data-name="Layer 1"><path class="cls-1" d="M1.66,36A2.24,2.24,0,0,1,3,36.26a1.07,1.07,0,0,1,.45,1,1.28,1.28,0,0,1-.12.58.91.91,0,0,1-.35.4,1.69,1.69,0,0,1-.56.23,3.42,3.42,0,0,1-.75.07H1.27v1.37H.56V36A4.11,4.11,0,0,1,1.11,36Zm.05.61a2.76,2.76,0,0,0-.44,0V37.9h.34a1.63,1.63,0,0,0,.78-.15.54.54,0,0,0,.27-.54.66.66,0,0,0-.07-.32.55.55,0,0,0-.2-.2,1,1,0,0,0-.3-.1A2.34,2.34,0,0,0,1.71,36.56Z"/><path class="cls-1" d="M4.75,36.87a1.6,1.6,0,0,1,.57.08.85.85,0,0,1,.36.24.91.91,0,0,1,.2.36,1.78,1.78,0,0,1,.06.47V39.8l-.47.08a5.19,5.19,0,0,1-.72,0,2.44,2.44,0,0,1-.48,0,1.05,1.05,0,0,1-.37-.17.76.76,0,0,1-.24-.29A1,1,0,0,1,3.57,39a.77.77,0,0,1,.1-.42.8.8,0,0,1,.26-.29,1.32,1.32,0,0,1,.39-.15,2.34,2.34,0,0,1,.47,0H5l.26.05V38a1.5,1.5,0,0,0,0-.22.49.49,0,0,0-.1-.19A.43.43,0,0,0,5,37.48a.78.78,0,0,0-.29,0,2.9,2.9,0,0,0-.43,0,1.86,1.86,0,0,0-.32.08L3.85,37a2.7,2.7,0,0,1,.38-.09A2.89,2.89,0,0,1,4.75,36.87Zm.06,2.52a2.67,2.67,0,0,0,.47,0v-.75l-.16,0H4.66a.65.65,0,0,0-.21.06.47.47,0,0,0-.15.13.41.41,0,0,0,0,.21.35.35,0,0,0,.15.33A.8.8,0,0,0,4.81,39.39Z"/><path class="cls-1" d="M8.94,36.94a20.85,20.85,0,0,1-1,3,2.44,2.44,0,0,1-.23.43,1.28,1.28,0,0,1-.26.3,1,1,0,0,1-.33.17,1.58,1.58,0,0,1-.41,0,1.63,1.63,0,0,1-.31,0,1.3,1.3,0,0,1-.23-.07l.12-.55a1.19,1.19,0,0,0,.4.08.63.63,0,0,0,.41-.12,1.06,1.06,0,0,0,.26-.39c-.21-.41-.41-.86-.61-1.35a15.42,15.42,0,0,1-.53-1.54h.72c0,.16.09.33.14.51l.18.56c.06.18.13.37.2.56s.14.36.22.52c.11-.33.23-.69.33-1.06s.2-.74.28-1.09Z"/><path class="cls-1" d="M11,38.33a1.42,1.42,0,0,0-.11-.67.46.46,0,0,0-.43-.2l-.24,0-.21,0v2.37H9.32V37c.13,0,.3-.07.51-.1a3.58,3.58,0,0,1,.67,0A1.17,1.17,0,0,1,11,37a.92.92,0,0,1,.32.2l.16-.09a.78.78,0,0,1,.21-.09,1.17,1.17,0,0,1,.25-.07l.27,0a1.31,1.31,0,0,1,.56.1.79.79,0,0,1,.35.27,1.11,1.11,0,0,1,.17.43,2.92,2.92,0,0,1,.05.54v1.65h-.68V38.33a1.56,1.56,0,0,0-.11-.67.45.45,0,0,0-.43-.2,1.06,1.06,0,0,0-.31,0,.89.89,0,0,0-.22.11,1.36,1.36,0,0,1,.06.29,1.88,1.88,0,0,1,0,.34v1.62H11Z"/><path class="cls-1" d="M13.86,38.42a1.76,1.76,0,0,1,.11-.68,1.51,1.51,0,0,1,.3-.48,1.43,1.43,0,0,1,.44-.3,1.48,1.48,0,0,1,.51-.09,1.21,1.21,0,0,1,.94.37,1.65,1.65,0,0,1,.34,1.12.62.62,0,0,1,0,.13v.12H14.55a.81.81,0,0,0,.25.55.94.94,0,0,0,.64.19,2,2,0,0,0,.45,0,2.25,2.25,0,0,0,.33-.1l.09.56-.16,0-.22.06-.27,0-.3,0a1.71,1.71,0,0,1-.67-.12,1.13,1.13,0,0,1-.47-.32,1.27,1.27,0,0,1-.28-.48A2.23,2.23,0,0,1,13.86,38.42Zm2-.31a.75.75,0,0,0,0-.26.76.76,0,0,0-.11-.22.9.9,0,0,0-.19-.15.67.67,0,0,0-.26,0,.57.57,0,0,0-.27.06.62.62,0,0,0-.2.15.71.71,0,0,0-.13.22,1.14,1.14,0,0,0-.06.25Z"/><path class="cls-1" d="M17.07,37c.13,0,.3-.07.51-.1a3.78,3.78,0,0,1,.7,0,1.49,1.49,0,0,1,.59.1.91.91,0,0,1,.39.27,1.14,1.14,0,0,1,.2.43,2.23,2.23,0,0,1,.06.54v1.65h-.68V38.33a2.25,2.25,0,0,0,0-.4.66.66,0,0,0-.1-.27.4.4,0,0,0-.19-.15.84.84,0,0,0-.29,0l-.27,0-.21,0v2.37h-.68Z"/><path class="cls-1" d="M20.17,36.17l.68-.11v.88h1v.56h-1v1.2a.9.9,0,0,0,.11.5.45.45,0,0,0,.38.15,1.11,1.11,0,0,0,.33,0l.23-.07.11.54-.31.1a1.86,1.86,0,0,1-1,0,.83.83,0,0,1-.33-.24,1,1,0,0,1-.18-.39,2.62,2.62,0,0,1,0-.52Z"/><path class="cls-1" d="M23.14,39.38a.77.77,0,0,0,.39-.07.22.22,0,0,0,.12-.22.3.3,0,0,0-.13-.24,2,2,0,0,0-.43-.2l-.34-.15a1.78,1.78,0,0,1-.27-.17.74.74,0,0,1-.17-.25.73.73,0,0,1-.07-.35.75.75,0,0,1,.3-.63,1.25,1.25,0,0,1,.8-.23,2.67,2.67,0,0,1,.5,0l.35.1-.12.55a1.39,1.39,0,0,0-.29-.1,1.59,1.59,0,0,0-.4,0,.69.69,0,0,0-.34.07.25.25,0,0,0-.13.22.24.24,0,0,0,0,.12.23.23,0,0,0,.09.11l.16.09.24.1a3.31,3.31,0,0,1,.41.18,1.24,1.24,0,0,1,.28.19.76.76,0,0,1,.16.25,1.16,1.16,0,0,1,0,.34.7.7,0,0,1-.31.63,1.5,1.5,0,0,1-.89.22,2.12,2.12,0,0,1-.62-.07,2,2,0,0,1-.33-.1l.12-.56a2.22,2.22,0,0,0,.36.11A1.75,1.75,0,0,0,23.14,39.38Z"/><path class="cls-1" d="M27.65,38.33a1.56,1.56,0,0,0-.11-.67.46.46,0,0,0-.43-.2l-.25,0-.2,0v2.37H26V37c.13,0,.3-.07.51-.1a3.58,3.58,0,0,1,.67,0,1.17,1.17,0,0,1,.49.08.92.92,0,0,1,.32.2l.16-.09a.67.67,0,0,1,.21-.09,1,1,0,0,1,.25-.07l.27,0a1.34,1.34,0,0,1,.56.1.79.79,0,0,1,.35.27,1.11,1.11,0,0,1,.17.43,2.92,2.92,0,0,1,.05.54v1.65h-.68V38.33a1.56,1.56,0,0,0-.11-.67.46.46,0,0,0-.43-.2,1.06,1.06,0,0,0-.31,0,.89.89,0,0,0-.22.11,1.36,1.36,0,0,1,.06.29c0,.11,0,.22,0,.34v1.62h-.68Z"/><path class="cls-1" d="M31.66,36.87a1.54,1.54,0,0,1,.56.08.82.82,0,0,1,.37.24.91.91,0,0,1,.2.36,1.78,1.78,0,0,1,.06.47V39.8l-.48.08a5,5,0,0,1-.71,0,2.28,2.28,0,0,1-.48,0,1,1,0,0,1-.37-.17.62.62,0,0,1-.24-.29,1,1,0,0,1-.09-.44.77.77,0,0,1,.1-.42.8.8,0,0,1,.26-.29,1.13,1.13,0,0,1,.39-.15,2.31,2.31,0,0,1,.46,0h.24l.26.05V38a.78.78,0,0,0,0-.22.39.39,0,0,0-.1-.19.35.35,0,0,0-.18-.13.81.81,0,0,0-.29,0,2.9,2.9,0,0,0-.43,0,1.65,1.65,0,0,0-.32.08L30.76,37a2.5,2.5,0,0,1,.37-.09A3,3,0,0,1,31.66,36.87Zm.06,2.52a2.83,2.83,0,0,0,.47,0v-.75l-.16,0h-.46a.65.65,0,0,0-.21.06.47.47,0,0,0-.15.13.33.33,0,0,0-.05.21.35.35,0,0,0,.15.33A.78.78,0,0,0,31.72,39.39Z"/><path class="cls-1" d="M36,39.78l-.51.11a4.37,4.37,0,0,1-.64,0,1.71,1.71,0,0,1-.62-.11,1.35,1.35,0,0,1-.47-.3,1.5,1.5,0,0,1-.3-.48,2.17,2.17,0,0,1,0-1.27,1.37,1.37,0,0,1,.25-.48,1,1,0,0,1,.41-.31,1.25,1.25,0,0,1,.56-.11,1.07,1.07,0,0,1,.37,0,1.49,1.49,0,0,1,.28.11v-1.4l.68-.12Zm-1.94-1.39a1.09,1.09,0,0,0,.21.71.72.72,0,0,0,.59.25h.27l.19,0V37.63l-.24-.12a1.06,1.06,0,0,0-.31,0,.59.59,0,0,0-.54.25A1.16,1.16,0,0,0,34.07,38.39Z"/><path class="cls-1" d="M36.57,38.42a1.76,1.76,0,0,1,.11-.68,1.37,1.37,0,0,1,.31-.48,1.28,1.28,0,0,1,.43-.3,1.48,1.48,0,0,1,.51-.09,1.21,1.21,0,0,1,.94.37,1.65,1.65,0,0,1,.34,1.12.62.62,0,0,1,0,.13v.12H37.27a.76.76,0,0,0,.24.55,1,1,0,0,0,.65.19,2.15,2.15,0,0,0,.45,0,2.49,2.49,0,0,0,.32-.1l.09.56-.16,0-.22.06-.27,0-.3,0a1.71,1.71,0,0,1-.67-.12,1.13,1.13,0,0,1-.47-.32,1.25,1.25,0,0,1-.27-.48A1.89,1.89,0,0,1,36.57,38.42Zm2-.31a.75.75,0,0,0,0-.26.76.76,0,0,0-.11-.22.7.7,0,0,0-.19-.15.67.67,0,0,0-.26,0,.6.6,0,0,0-.27.06.62.62,0,0,0-.2.15.71.71,0,0,0-.13.22,1.14,1.14,0,0,0-.06.25Z"/><path class="cls-2" d="M41,39.87,41.88,36h2.41l-.14.59H42.44l-.23,1h1.51l-.14.58h-1.5l-.28,1.15h1.83l-.14.59Z"/><path class="cls-2" d="M46.5,38.73l0,.2a2.35,2.35,0,0,0,0,.26,1.66,1.66,0,0,0,0,.32,1.18,1.18,0,0,0,.08.31l-.6.09a2.33,2.33,0,0,1-.11-.28,1.54,1.54,0,0,1-.34.22,1.14,1.14,0,0,1-.46.09,1,1,0,0,1-.45-.08.83.83,0,0,1-.31-.24,1.49,1.49,0,0,1-.17-.36,1.63,1.63,0,0,1-.06-.45,1.91,1.91,0,0,1,.15-.76,1.73,1.73,0,0,1,.41-.61,1.87,1.87,0,0,1,.61-.41,2,2,0,0,1,.79-.15,3.42,3.42,0,0,1,.44,0,1.6,1.6,0,0,1,.44.14Zm-.37-1.26a.88.88,0,0,0-.24,0,1.08,1.08,0,0,0-.47.11,1.12,1.12,0,0,0-.36.29,1.24,1.24,0,0,0-.24.42,1.36,1.36,0,0,0-.08.49.9.9,0,0,0,0,.24.59.59,0,0,0,.07.2.47.47,0,0,0,.15.13.39.39,0,0,0,.23,0,.64.64,0,0,0,.31-.07,1,1,0,0,0,.26-.21,2.28,2.28,0,0,1,0-.27,2.38,2.38,0,0,1,.05-.26Z"/><path class="cls-2" d="M47.77,39.39a.82.82,0,0,0,.42-.09.3.3,0,0,0,.06-.49,1.86,1.86,0,0,0-.35-.21,1.46,1.46,0,0,1-.25-.13.75.75,0,0,1-.2-.15.77.77,0,0,1-.14-.21.84.84,0,0,1-.05-.29.88.88,0,0,1,.32-.7,1.47,1.47,0,0,1,.93-.25,2,2,0,0,1,.5.06,1,1,0,0,1,.33.12l-.24.52a1.23,1.23,0,0,0-.27-.11,1.58,1.58,0,0,0-.38-.05.65.65,0,0,0-.19,0l-.16,0a.32.32,0,0,0-.12.11.31.31,0,0,0,0,.17A.27.27,0,0,0,48,38a1.33,1.33,0,0,0,.3.17l.32.16.21.18a.53.53,0,0,1,.12.22A.85.85,0,0,1,49,39a1,1,0,0,1-.08.38.81.81,0,0,1-.25.3,1,1,0,0,1-.39.2,1.81,1.81,0,0,1-.54.07l-.37,0a1.77,1.77,0,0,1-.29-.07l-.2-.07-.13-.07.24-.53.11.06.18.07.21,0A1.09,1.09,0,0,0,47.77,39.39Z"/><path class="cls-2" d="M52.09,36.94q-.11.31-.24.66t-.3.69c-.11.23-.23.47-.36.69a7.48,7.48,0,0,1-.41.67c-.11.17-.22.32-.34.48a2.83,2.83,0,0,1-.37.4,2.6,2.6,0,0,1-.45.28,1.47,1.47,0,0,1-.56.1,1.08,1.08,0,0,1-.32,0,.79.79,0,0,1-.23-.09l.22-.54a.75.75,0,0,0,.18.07.66.66,0,0,0,.21,0,.72.72,0,0,0,.46-.14,1.16,1.16,0,0,0,.36-.37,13.66,13.66,0,0,1-.3-1.35,14.29,14.29,0,0,1-.16-1.54h.68c0,.16,0,.33,0,.52s0,.39.05.58,0,.4.08.59.06.38.1.54c.11-.18.21-.37.31-.56s.19-.4.27-.59.16-.39.22-.57l.16-.51Z"/><path class="cls-1" d="M54.52,10.17c2,0,3.85,0,5.73,0,.39,0,.41.25.49.49q2.5,7.17,5,14.33c0,.12.08.23.16.44.28-.79.53-1.5.77-2.22q2.15-6.25,4.26-12.52a.65.65,0,0,1,.74-.52c1.81,0,3.62,0,5.49,0-.61,1.53-1.2,3-1.8,4.49q-3.81,9.48-7.62,19a15.26,15.26,0,0,1-2.47,4.28C62.61,41,59.36,41.33,56,40.3a.31.31,0,0,1-.26-.34c0-1.39,0-2.77,0-4.2a13,13,0,0,0,1.94.47,3,3,0,0,0,2.66-.81A12.44,12.44,0,0,0,63,31.11c.09-.23,0-.41-.13-.6L54.79,10.86c-.09-.21-.17-.42-.27-.69Z"/><path class="cls-2" d="M6.45,20.38c0,3.86,0,7.72,0,11.57,0,.4-.08.54-.51.53-1.78,0-3.56,0-5.34,0-.37,0-.46-.11-.46-.47q0-11.62,0-23.25c0-.38.08-.5.49-.5,1.78,0,3.56,0,5.33,0,.41,0,.49.12.49.5,0,3.88,0,7.75,0,11.62Z"/><path class="cls-2" d="M3.19.14c.65,0,1.3,0,1.95,0a1.1,1.1,0,0,1,1.2,1.22q0,1.74,0,3.48a1.09,1.09,0,0,1-1.2,1.21h-4A1.09,1.09,0,0,1,0,4.86C0,3.68,0,2.51,0,1.33A1.09,1.09,0,0,1,1.18.14c.67,0,1.34,0,2,0Z"/><path class="cls-3" d="M80.63,9.65a2.16,2.16,0,0,1-2.21-2.08,2.2,2.2,0,0,1,2.21-2.15A2.17,2.17,0,0,1,82.85,7.6a2.13,2.13,0,0,1-2.22,2.05Zm.06-4.55a2.53,2.53,0,0,0-2.64,2.43A2.47,2.47,0,0,0,80.61,10a2.5,2.5,0,0,0,2.63-2.38A2.54,2.54,0,0,0,80.69,5.1Z"/><path class="cls-1" d="M27.42,14a9.8,9.8,0,0,1-.33,2.08,4.84,4.84,0,0,1-4.3,3.72A22.58,22.58,0,0,1,18,19.67c-.37,0-.33-.26-.33-.52V7.7a2.18,2.18,0,0,1,1.71-2.41,8.28,8.28,0,0,1,4.73-.15A3.7,3.7,0,0,1,26.74,7.6a15.76,15.76,0,0,1,.68,6.4ZM26.16.56a16.26,16.26,0,0,0-8.34,0,7.89,7.89,0,0,0-6.29,8.12c.13,3.73,0,7.46,0,11.19,0,4,0,8.07,0,12.1,0,.44.12.55.55.54,1.66,0,3.31,0,5,0,.45,0,.62-.08.61-.59,0-2.49,0-5,0-7.49,0-.35,0-.49.45-.41a18.73,18.73,0,0,0,6.51.13c4-.65,6.88-2.72,8.24-6.64a16.38,16.38,0,0,0,.52-8.19C32.67,5,30.51,1.86,26.16.56Z"/><path class="cls-1" d="M48.18,23.46h0c0,.4,0,.8,0,1.21a2.81,2.81,0,0,1-2.24,2.88,7.61,7.61,0,0,1-4.41-.07,3.11,3.11,0,0,1-2.08-3.73,2.37,2.37,0,0,1,1.45-1.63,7.73,7.73,0,0,1,2.76-.6,23.71,23.71,0,0,1,4.21.19c.24,0,.33.13.32.37,0,.46,0,.92,0,1.38Zm-.35-13a12.84,12.84,0,0,0-3-.53,22.37,22.37,0,0,0-8.33,1c-.23.07-.35.16-.35.43,0,1.32,0,2.64,0,4l.46-.16a18.31,18.31,0,0,1,7.91-.89A3.68,3.68,0,0,1,48.11,18c0,.36-.06.43-.43.39a26.81,26.81,0,0,0-4.74-.24,14.56,14.56,0,0,0-5.62,1.26,6.22,6.22,0,0,0-3.53,6.39,6.79,6.79,0,0,0,4.69,5.84A15.52,15.52,0,0,0,49,31.68a6.52,6.52,0,0,0,4.8-5.78,40.16,40.16,0,0,0-.07-8.7,7.76,7.76,0,0,0-5.9-6.77Z"/><path class="cls-3" d="M80.61,7.54c-.38,0-.53-.11-.42-.46-.09-.38,0-.54.42-.51s.71,0,.71.49-.36.45-.71.48Zm.63.36a.88.88,0,0,0,.6-1,.84.84,0,0,0-.78-.68c-.4,0-.81,0-1.21,0-.16,0-.22.08-.22.23,0,.77,0,1.54,0,2.32,0,.16.09.2.23.2s.3,0,.3-.2a2.17,2.17,0,0,1,0-.36c0-.14-.1-.35.15-.39a.39.39,0,0,1,.45.17c.1.17.24.31.34.48a.56.56,0,0,0,.8.23c-.23-.33-.45-.62-.68-.94Z"/></g></g></svg>