<?xml version="1.0" encoding="UTF-8"?> <svg xmlns="http://www.w3.org/2000/svg" id="Layer_2" viewBox="0 0 1013.93 221.49"><defs><style> .cls-1 { fill: none; } .cls-2 { fill: #fff; } </style></defs><g id="Layer_1-2"><g><path class="cls-2" d="M633.53,114.31h-.03c-.17-.04-.35-.05-.53-.05l-10.44.12h-1.4s-1.09.02-1.09.02l-5.11.06,2.88-9.99h0s.31-1.09.31-1.09h0s1.02-3.54,1.02-3.54l.79-2.72c.29-1.01-.06-2.02-.79-2.63-.44-.39-1.02-.62-1.66-.62h-17.94c-.87,0-1.66.44-2.12,1.14-.02.03-.04.05-.04.08-.12.19-.22.4-.29.62l-4.46,15.48-1.02,3.53-2.47.03-16.63.18h-.68c-1.13.02-2.12.78-2.43,1.87l-4.78,17.29c-.46,1.63.79,3.25,2.48,3.23h.64s5.14-.06,5.14-.06c.13.03.27.04.4.04h.03l11.83-.12-1.04,3.58-3.95,13.72c-.47,1.63.75,3.26,2.45,3.26h17.95c.15,0,.3-.02.46-.04.94-.17,1.72-.86,1.99-1.79l5.48-19.01,12.92-.13h1.13s2.42-.04,2.42-.04l3.3-.04c.34,0,.66-.07.96-.21.25-.1.47-.24.68-.43.37-.31.65-.74.79-1.24l4.11-14.88.67-2.41c.39-1.45-.54-2.88-1.94-3.18M151.9,63.86h21.58l-40.61,93.85h-21.46l-40.48-93.85h23.37l28.61,67.04,28.99-67.04ZM180.81,157.71h21.72V63.85h-21.72v93.85ZM262.79,102.41c-7.79-1.66-14.56-3.32-18.51-6.26-1.92-1.53-2.95-3.32-2.95-5.74,0-4.22,2.18-7.28,7.54-9.33,2.68-.89,6.12-1.4,10.34-1.4,8.43,0,17.24,2.43,26.05,7.41l6.64-16.6c-8.68-5.5-20.81-8.3-32.56-8.3-17.75,0-29.37,5.61-35.12,14.56-2.94,4.34-4.46,9.32-4.46,14.68,0,18.77,15.96,24.26,33.33,28.09,7.66,1.66,14.42,3.32,18.26,6.26,2.04,1.53,2.94,3.45,2.94,6.01,0,3.95-2.3,7.15-7.53,8.81-2.69.89-6.27,1.28-10.48,1.28-11.24,0-22.98-3.95-31.03-9.84l-7.41,16.48c8.56,6.38,23.24,10.85,38.31,10.85,17.75,0,29.5-6,35.37-14.68,2.94-4.47,4.47-9.19,4.47-14.43,0-19.03-16.09-23.88-33.2-27.84M311.31,157.71h21.71V63.85h-21.71v93.85ZM451.01,110.71c0,14.05-5.49,26.18-14.56,34.74-9.32,8.81-21.97,13.92-36.65,13.92s-27.71-5.11-36.91-13.92c-9.19-8.68-14.56-20.69-14.56-34.74s5.36-25.92,14.56-34.61c9.33-8.81,22.23-13.92,36.78-13.92s27.46,5.11,36.77,13.92c9.07,8.68,14.56,20.56,14.56,34.61M429.04,110.71c0-17.62-12.39-30.01-29.37-30.01s-29.37,12.51-29.37,30.01,12.39,30.14,29.37,30.14,29.37-12.51,29.37-30.14M715.42,63.86h-21.58v93.85h77.77v-17.49h-56.19V63.86ZM837.75,115.57c0,17.88-7.66,25.29-20.94,25.29s-20.95-7.41-20.95-25.29v-51.72h-21.71v52.61c0,27.46,15.83,42.91,42.52,42.91s42.53-15.45,42.53-42.91v-52.61h-21.46v51.72ZM914.68,102.41c-7.79-1.66-14.56-3.32-18.51-6.26-1.92-1.53-2.94-3.32-2.94-5.74,0-4.22,2.17-7.28,7.53-9.33,2.68-.89,6.12-1.4,10.34-1.4,8.43,0,17.24,2.43,26.05,7.41l6.64-16.6c-8.68-5.5-20.81-8.3-32.56-8.3-17.75,0-29.37,5.61-35.12,14.56-2.94,4.34-4.46,9.32-4.46,14.68,0,18.77,15.96,24.26,33.33,28.09,7.66,1.66,14.42,3.32,18.26,6.26,2.04,1.53,2.94,3.45,2.94,6.01,0,3.95-2.3,7.15-7.53,8.81-2.69.89-6.26,1.28-10.48,1.28-11.24,0-22.98-3.95-31.03-9.84l-7.41,16.48c8.56,6.38,23.24,10.85,38.31,10.85,17.75,0,29.5-6,35.37-14.68,2.94-4.47,4.47-9.19,4.47-14.43,0-19.03-16.09-23.88-33.2-27.84M527.75,120.81l-46.61-56.96h-18v93.85h21.46v-56.95l46.86,56.95h17.75V63.86h-21.46v56.96ZM662.69,67.81c-6-2.68-13.28-3.95-21.71-3.95h-34.43l-5.21,17.74h38.49c13.41,0,19.92,6.01,19.92,16.35,0,6.55-2.75,11.43-8.35,14.05-2.3,7.84-4.61,15.68-6.91,23.52,2.73-.33,22.68-3.03,32.24-19.57,4.82-8.33,4.98-16.66,4.98-18,0-14.17-6.77-24.52-19.03-30.14M633.53,114.31h-.03c-.17-.04-.35-.05-.53-.05l-10.44.12h-1.4s-1.09.02-1.09.02l-5.11.06,2.88-9.99h0s.31-1.09.31-1.09h0s1.02-3.54,1.02-3.54l.79-2.72c.29-1.01-.06-2.02-.79-2.63-.44-.39-1.02-.62-1.66-.62h-17.94c-.87,0-1.66.44-2.12,1.14-.02.03-.04.05-.04.08-.12.19-.22.4-.29.62l-4.46,15.48-1.02,3.53-2.47.03-16.63.18h-.68c-1.13.02-2.12.78-2.43,1.87l-4.78,17.29c-.46,1.63.79,3.25,2.48,3.23h.64s5.14-.06,5.14-.06c.13.03.27.04.4.04h.03l11.83-.12-1.04,3.58-3.95,13.72c-.47,1.63.75,3.26,2.45,3.26h17.95c.15,0,.3-.02.46-.04.94-.17,1.72-.86,1.99-1.79l5.48-19.01,12.92-.13h1.13s2.42-.04,2.42-.04l3.3-.04c.34,0,.66-.07.96-.21.25-.1.47-.24.68-.43.37-.31.65-.74.79-1.24l4.11-14.88.67-2.41c.39-1.45-.54-2.88-1.94-3.18"></path><rect class="cls-1" width="1013.93" height="221.49"></rect></g></g></svg> 